# xmcd
#
# Track frame offsets:
#	150
#	21355
#	35030
#	47975
#	55495
#	70830
#	86140
#	104735
#	119722
#	136622
#	150037
#	162067
#	171285
#	185275
#	197825
#
# Disc length: 2786 seconds
# Revision: 3
# Processed by: cddbd v1.5.2PL0 Copyright (c) Steve Scherf et al.
# Submitted via: dBpowerAMP V12.0
#
DISCID=d20ae00f
DTITLE=Various Artist - Blues and Soul Sessions
DYEAR=1991
DGENRE=Blues
TTITLE0=Guy, Buddy and Jeff Beck - Mustang Sally
TTITLE1=Franklin, Erma - Hold On I'm Coming
TTITLE2=Womack, Bobby - It's All Over Now
TTITLE3=Hall, Vera - Trouble So Hard
TTITLE4=Brooks, Lonnie, John Hunter and Phillip Walker - Roll Roll Roll
TTITLE5=Scott, Peggy - Every Little Bit Hurts
TTITLE6=Booker T and The MGs - Sunday Sermon
TTITLE7=Dixon, Willie and Memphis Slim - Sittin' And Cryin' The Blues
TTITLE8=Bell, Carey - Let Me Stir In Your Pot
TTITLE9=Staple Singers - Wade In The Water
TTITLE10=Little Richard - Try Some Of Mine
TTITLE11=Baker, LaVern - I'm Gonna Get You
TTITLE12=Smith, Floyd - Getting Nowhere Fast
TTITLE13=Davis, Tyrone - A Woman Needs To Be Loved
TTITLE14=Lance, Major - Shadows Of A Memory
EXTD=
EXTT0=
EXTT1=
EXTT2=
EXTT3=
EXTT4=
EXTT5=
EXTT6=
EXTT7=
EXTT8=
EXTT9=
EXTT10=
EXTT11=
EXTT12=
EXTT13=
EXTT14=
PLAYORDER=
